<svg xmlns="http://www.w3.org/2000/svg" viewBox="0 0 1440 320"><path fill="#e6bd08" fill-opacity="1" d="M0,64L34.3,80C68.6,96,137,128,206,160C274.3,192,343,224,411,218.7C480,213,549,171,617,138.7C685.7,107,754,85,823,90.7C891.4,96,960,128,1029,144C1097.1,160,1166,160,1234,165.3C1302.9,171,1371,181,1406,186.7L1440,192L1440,320L1405.7,320C1371.4,320,1303,320,1234,320C1165.7,320,1097,320,1029,320C960,320,891,320,823,320C754.3,320,686,320,617,320C548.6,320,480,320,411,320C342.9,320,274,320,206,320C137.1,320,69,320,34,320L0,320Z"></path></svg>